<?xml version="1.0" encoding="utf-8"?>
<!-- Designed by Vexels.com - 2016 All Rights Reserved - https://vexels.com/terms-and-conditions/  -->

<svg version="1.1" id="Layer_1" xmlns="http://www.w3.org/2000/svg" xmlns:xlink="http://www.w3.org/1999/xlink" x="0px" y="0px"
	 width="1200px" height="1200px" viewBox="0 0 1200 1200" enable-background="new 0 0 1200 1200" xml:space="preserve">
<g>
	<path fill-rule="evenodd" clip-rule="evenodd" fill="#6A412F" d="M535.355,274.055l26.738,12.692
		c-14.455,16.947-52.733,36.15-81.851,15.223c-1.128-3.424,5.038-2.527,9.118-3.228C501.44,296.664,527.379,284.421,535.355,274.055
		z"/>
	<path opacity="0.3" fill-rule="evenodd" clip-rule="evenodd" fill="#FFFFFF" d="M475.956,684.203
		c-0.033-1.85,0.372-3.326,1.35-4.293c52.569-51.827-61.653-64.859-3.391-115.373c20.327-17.634-38.589-45.74,1.756-54.947
		c15.798-3.602,18.638,5.474,16.643,11.542c-1.612,4.835-7.383,8.114-4.172-1.149c0.813-0.229-14.698,4.297-0.666,14.284
		c13.105,9.333,30.178-45.193-14.219-39.733c-22.595,2.784-35.734,26.99-19.212,50.224c16.564,23.286-40.02,23.216-11.461,70.31
		c24.157,39.836,8.697,39.359-5.75,69.133H475.956z"/>
	<path opacity="0.3" fill-rule="evenodd" clip-rule="evenodd" fill="#FFFFFF" d="M483.302,697.04
		c5.136-4.797,15.772-4.372,15.739-23.164c-0.009-6.54-14.326-19.96,9.281-29.157c30.809-11.982-13.843-37.589,19.066-48.025
		c11.482-3.639-7.754-25.645,10.468-22.277c7.135,1.326,6.694,5.563,4.795,7.693c-1.521,1.705-4.48,2.032-1.511-1.205
		c0.376,0.047-6.804-0.845-2.807,5.755c3.73,6.161,20.422-13.224,1.198-18.853c-9.779-2.869-19.474,4.75-16.8,17.237
		c2.677,12.514-20.565,2.448-17.178,26.869c3.216,23.155-5.061,16.662-18.909,31.535c-13.67,14.672,5.648,27.121-15.116,33.805
		c-4.386,1.411-7.846,18.97,10.365,20.885C482.491,698.198,482.926,697.385,483.302,697.04z"/>
	<path opacity="0.3" fill-rule="evenodd" clip-rule="evenodd" fill="#FFFFFF" d="M516.081,689.823
		c1.667-1.821,3.111-3.583,4.351-5.287c29.34-40.303-56.192-47.366-12.154-89.794c16.017-15.438-33.836-36.08-0.932-45.432
		c12.893-3.663,15.623,3.709,14.233,8.796c-1.109,4.069-5.741,7.035-3.492-0.757c0.666-0.229-11.939,4.181,0.073,11.818
		c11.225,7.138,22.956-38.612-13.467-32.18c-18.519,3.27-28.319,23.827-13.673,42.283c14.684,18.508-32.024,20.908-6.407,58.539
		c14.821,21.773,13.528,28.784,7.824,39.102c-40.043,72.464-0.404,25.631,6.203,22.805
		C509.338,695.157,509.838,696.666,516.081,689.823z"/>
	<path opacity="0.3" fill-rule="evenodd" clip-rule="evenodd" fill="#FFFFFF" d="M479.114,665.103
		c1.784-4.741,8.786-7.867,2.76-19.988c-2.095-4.218-15.641-8.315-3.33-21.796c16.059-17.582-20.955-19.843-3.046-37.103
		c6.248-6.021-13.205-14.084-0.364-17.727c5.031-1.429,6.098,1.439,5.559,3.433c-0.437,1.584-2.24,2.737-1.364-0.299
		c0.257-0.089-4.657,1.63,0.028,4.611c4.377,2.784,8.957-15.069-5.255-12.556c-7.231,1.28-11.052,9.295-5.334,16.503
		c5.725,7.221-12.5,8.155-2.501,22.842c9.48,13.925,2.06,12.374-2.135,26.406c-4.129,13.845,12.325,15.704,1.056,26.663
		c-2.375,2.307,1,14.756,13.371,10.164C478.962,666.107,478.985,665.444,479.114,665.103z"/>
	<path opacity="0.3" fill-rule="evenodd" clip-rule="evenodd" fill="#FFFFFF" d="M418.099,709.129
		c-5.073-11.599-22.959-18.484-9.51-49.519c3.802-8.786,1.569,6.587-7.577-13.911c-2.097-4.704,19.079-34.926,13.019-40.91
		c-42.375-41.774,49.696-52.27,2.735-92.994c-16.387-14.21,31.106-36.874-1.418-44.292c-12.743-2.905-15.027,4.414-13.413,9.296
		c1.29,3.9,5.956,6.549,3.359-0.92c-0.656-0.187,11.844,3.461,0.532,11.514c-10.557,7.526-24.327-36.426,11.473-32.026
		c18.201,2.238,28.795,21.754,15.48,40.48c-13.357,18.769,32.252,18.717,9.237,56.685c-21.838,35.991-3.524,31.143,8.773,65.611
		c12.138,34.001-28.681,40.817,0.873,66.667c6.238,5.456-0.551,36.972-32.028,27.135
		C418.603,711.628,418.458,709.965,418.099,709.129z"/>
	<path fill-rule="evenodd" clip-rule="evenodd" fill="#282021" d="M492.704,729.112l-6.007,6.932
		c-13.714,26.159,71.471,30.713,67.875-4.078C543.018,729.234,506.589,729.112,492.704,729.112z"/>
	<path fill-rule="evenodd" clip-rule="evenodd" fill="#446371" d="M664.172,748.806c-4.167,4.751-9.214,85.623-41.48,72.431
		c-7.992-3.265-17.23-0.794-26.245-0.794c-12.71,0-7.269-49.295-9.455-60.856c-1.922-10.188-4.935-25.776-3.574-36.197
		c0.215-1.71,12.131,2.621,14.313,3.181C605.048,728.444,662.579,732.793,664.172,748.806z"/>
	<path fill-rule="evenodd" clip-rule="evenodd" fill="#446371" d="M676.63,778.781c10.274,37.687-1.969,296.718-4.248,355.579
		c-0.294,7.548-48.51,8.8-47.454,0.747c1.836-13.981-3.071-296.895-3.071-319.774C621.856,748.997,642.862,784.849,676.63,778.781z"
		/>
	<g>
		<defs>
			<path id="SVGID_1_" d="M568.667,788.109c-13.857,101.089-20.098,243.037-22.704,346.937c-0.619,7.516,53.41,4.321,55.65-3.13
				c2.046-6.82,5.313-285.315,6.409-308.162C611.217,757.494,602.099,795.849,568.667,788.109z"/>
		</defs>
		<use xlink:href="#SVGID_1_"  overflow="visible" fill-rule="evenodd" clip-rule="evenodd" fill="#446371"/>
		<clipPath id="SVGID_2_">
			<use xlink:href="#SVGID_1_"  overflow="visible"/>
		</clipPath>
	</g>
	<path fill-rule="evenodd" clip-rule="evenodd" fill="#E3E0DF" d="M585.626,569.078c-41.324,22.319-79.821,61.43-83.694,108.049
		l-3.492,41.929c-0.107,1.303,43.227,15.919,45.287,6.422c9.181-31.306,19.511-72.739,26.196-106.474
		C573.338,601.776,594.716,576.266,585.626,569.078z"/>
	<path fill-rule="evenodd" clip-rule="evenodd" fill="#818081" d="M606.94,773.563c7.138-0.804,14.273-1.607,21.413-2.415
		c2.405-0.266,4.599,1.602,4.874,4.157c0.215,2.023,0.385,3.569,0.6,5.582c0.96,8.782-29.645,10.08-30.021,4.55
		c-0.138-2.018-0.514-4.723-0.736-6.736C602.802,776.146,604.54,773.834,606.94,773.563z"/>
	<path fill-rule="evenodd" clip-rule="evenodd" fill="#818081" d="M585.093,777.543l4.386-0.22c0.855-0.047,1.574,0.607,1.621,1.457
		l0.357,6.731c0.042,0.846-0.605,1.569-1.46,1.611l-4.386,0.22c-0.848,0.042-1.578-0.621-1.618-1.457l-0.36-6.731
		C583.589,778.309,584.245,777.58,585.093,777.543z"/>
	<path fill-rule="evenodd" clip-rule="evenodd" fill="#818081" d="M648.827,771.545l-4.34,0.761
		c-0.831,0.14-1.399,0.953-1.261,1.789l1.086,6.638c0.138,0.836,0.937,1.406,1.773,1.257l4.335-0.766
		c0.831-0.144,1.399-0.953,1.261-1.784l-1.095-6.647C650.452,771.956,649.663,771.391,648.827,771.545z"/>
	<path fill-rule="evenodd" clip-rule="evenodd" fill="#818081" d="M664.809,767.701l-4.326,0.757
		c-0.836,0.149-1.402,0.948-1.264,1.789l1.089,6.643c0.138,0.841,0.932,1.397,1.77,1.252l4.332-0.761
		c0.834-0.144,1.404-0.948,1.266-1.789l-1.093-6.638C666.444,768.116,665.65,767.551,664.809,767.701z"/>
	<path fill-rule="evenodd" clip-rule="evenodd" fill="#FFFFFF" d="M654.411,548.277c12.482,9.8,60.436,35.879,65.203,46.955
		c13.509,31.386-13.906,94.143-22.015,132.769c-0.353,24.963-2.399,28.06-0.178,65.415c1.675,28.078-149.632,19.404-145.36,5.708
		c2.074-6.638,6.336-53.919,5.267-68.806c-2.922-40.681-4.578-86.221-0.381-124.688c1.91-17.493,20.212-30.797,30.054-42.573
		C589.856,559.642,649.072,548.337,654.411,548.277z"/>
	<path fill-rule="evenodd" clip-rule="evenodd" fill="#AC8A63" d="M567.373,543.508c7.263,19.115,15.407,49.664,55.708,48.09
		c27.562-1.074,39.878-31.591,41.779-48.09C665.318,539.537,586.971,550.299,567.373,543.508z"/>
	<path fill-rule="evenodd" clip-rule="evenodd" fill="#1B1414" d="M605.953,576.079c-6.818-6.194-9.076,10.982-8.915,20.016
		c0.073,4.302,1.987,7.035-6.236,2.658c-11.407-10.211-19.152-15.658-23.561-23.477c-4.613-8.189-2.258-16.387-1.941-18.979
		c2.936-9.258,41.805,7.207,41.251,20.268C606.223,576.514,606.438,576.523,605.953,576.079z"/>
	<path fill-rule="evenodd" clip-rule="evenodd" fill="#1B1414" d="M632.875,569.003c6.28-5.227,10.181,11.155,10.695,19.105
		c0.248,3.793,0.843,7.736,6.846,2.55c13.582-9.898,22.387-19.442,27.16-27.214c3.587-5.825-1.236-10.762-1.663-12.682
		c-3.606-8.268-45.131,7.123-43.599,18.642C632.629,569.372,632.415,569.381,632.875,569.003z"/>
	<path fill-rule="evenodd" clip-rule="evenodd" fill="#512E21" d="M702.242,362.448l9.366-47.688
		c21.19,21.955,22.505,48.01,9.604,76.238C721.281,379.311,711.869,369.31,702.242,362.448z"/>
	<path fill-rule="evenodd" clip-rule="evenodd" fill="#402218" d="M513.583,358.739l7.768-47.977
		c-27.49,13.238-36.006,68.676-20.411,105.83c2.478-6.815,25.402-0.561,27.674-15.074
		C530.004,392.647,509.25,359.912,513.583,358.739z"/>
	<path fill-rule="evenodd" clip-rule="evenodd" fill="#6A412F" d="M707.373,379.858l-14.702-39.084
		c18.143,5.47,36.503,28.569,34.685,59.538C723.785,389.35,717.397,382.88,707.373,379.858z"/>
	<path fill-rule="evenodd" clip-rule="evenodd" fill="#6A412F" d="M664.639,352.891l-29.246-65.088
		c23.003,4.424,34.672,7.548,39.457,8.081c64.042,7.068,70.089,160.516,23.727,187.735L664.639,352.891z"/>
	<path fill-rule="evenodd" clip-rule="evenodd" fill="#E3C6A4" d="M529.572,405.306c-1.67-5.517-19.848-15.747-29.283-5.054
		c-12.741,29.933,20.567,44.665,23.954,35.019l0.315-0.925c2.969-8.441,5.484-10.384,6.603-19.301
		C531.877,409.342,531.302,411.019,529.572,405.306z"/>
	<path fill-rule="evenodd" clip-rule="evenodd" fill="#E3C6A4" d="M723.785,407.469c0.051,19.974-18.809,27.607-23.599,21.264
		l-2.161-2.854c-1.903-7.899-2.161-9.567-2.506-17.788c-0.518-12.299,12.297-19.268,21.081-15.985
		C723.124,394.553,723.771,401.224,723.785,407.469z"/>
	<path fill-rule="evenodd" clip-rule="evenodd" fill="#B18B5B" d="M711.561,406.815c4.162,13.663-7.869,19.325-10.59,15.728
		l-1.051-1.387c-0.923-3.835-1.046-4.643-1.214-8.632C698.393,405.11,708.043,401.686,711.561,406.815z"/>
	<path fill-rule="evenodd" clip-rule="evenodd" fill="#6A412F" d="M563.036,326.321l24.069-45.231
		c-64.955-12.617-77.061,49.412-78.763,93.111c-0.647,16.671,1.712,66.573,12.944,90.7L563.036,326.321z"/>
	<path fill-rule="evenodd" clip-rule="evenodd" fill="#E3C6A4" d="M691.276,539.005c-23.613,9.786-44.063,18.558-73.998,19.362
		c-40.775,1.098-71.516-9.352-87.76-22.468c-17.477-18.372-13.166-51.491-11.526-87.622c2.798-61.931,14.899-131.045,20.084-137.608
		c12.358-31.031,103.704-27.186,144.314-2.868c8.097,4.844,8.616,20.128,11.122,38.869c2.968,22.188,3.587,59.063,8.919,92.027
		C709.737,483.829,718.927,524.743,691.276,539.005z"/>
	<path fill-rule="evenodd" clip-rule="evenodd" fill="#C6A479" d="M583.856,448.318c0.054,0.579,2.018,20.086-5.669,16.55
		c-18.628-8.581-37.491,10.973-29.576,33.656c9.387,26.901,73.791,20.081,93.398,12.958c21.144-7.684,48.73-29.667,26.357-52.07
		c-1.368-1.368-12.547-2.265-21.828-2.013c-2.63,0.066-5.162-13.962-0.89-14.654c19.603-3.213,34.679,4.303,43.155,24.888
		c8.995,21.851,13.439,36.738,2.836,60.832c-10.109,22.987-51.542,29.83-74.568,33.903c-19.201,3.391-50.629-3.489-66.497-15.209
		c-26.602-19.642-27.42-51.088-13.866-77.467C549.403,444.983,572.563,445.768,583.856,448.318z"/>
	<path fill-rule="evenodd" clip-rule="evenodd" fill="#C6A479" d="M594.821,519.97c3.406-4.181,8.168-5.05,4.562-11.318
		c-2.24-3.886-2.023-4.34,13.333-2.481c5.134,0.626,10.195-2.158,15.345-2.158c2.49,1.177-4.902,5.881-1.264,12.631
		C629.161,521.025,594.421,520.46,594.821,519.97z"/>
	<path fill-rule="evenodd" clip-rule="evenodd" fill="#D4AF82" d="M521.14,405.885c6.253-31.231,19.633-65.64,46.471-64.672
		c9.26,0.331,59.852,3.013,73.708-2.952c20.868-7.624,28.473-29.905,52.058,7.32c-0.85-6.428-1.474-12.435-2.277-17.713
		l-6.134-17.919c-0.762-0.85-1.621-1.578-2.578-2.149c-8.714-5.218-19.768-9.491-31.869-12.678l-105.59,6.484
		c-3.134,2.606-5.484,5.619-6.855,9.062C534.07,315.746,525.921,358.235,521.14,405.885z"/>
	<path fill-rule="evenodd" clip-rule="evenodd" fill="#FFFFFF" d="M580.116,409.608c0.187,16.162-11.905,22.072-28.132,22.127
		c-16.23,0.051-25.829-7.838-24.968-21.688C527.71,384.805,576.136,379.479,580.116,409.608z"/>
	<path fill-rule="evenodd" clip-rule="evenodd" fill="#6A412F" d="M532.986,356.502c-4.291,3.765-4.433,9.328-3.331,11.458
		c24.521-3.293,45.086,5.787,55.094,8.431c1.077,0.126,2.908-0.364,1.637-4.9C584.024,362.672,543.303,355.114,532.986,356.502z"/>
	<path fill-rule="evenodd" clip-rule="evenodd" fill="#6A412F" d="M663.368,276.171c-17.115-24.187-57.287-31.007-94.867-22.716
		c-22.359,4.937-53.539,55.129-40.819,80.48c23.512-19.913,76.572-1.812,99.865-4.779
		C642.574,327.251,682.672,303.461,663.368,276.171z"/>
	<path fill-rule="evenodd" clip-rule="evenodd" fill="#6A412F" d="M622.596,271.057l51.992,20.128
		c-10.797-31.526-44.063-68.652-82.299-60.562C606.737,235.28,616.631,253.643,622.596,271.057z"/>
	<path fill-rule="evenodd" clip-rule="evenodd" fill="#6A412F" d="M593.233,277.9l54.066,1.256
		c-20.226-25.21-58.623-50.855-94.692-32.768C567.327,245.879,582.057,263.97,593.233,277.9z"/>
	<path fill-rule="evenodd" clip-rule="evenodd" fill="#6A412F" d="M523.126,287.172l40.301,2.308
		c-9.553,28.839-48.069,72.739-95.601,61.248c-3.19-3.751,5.071-5.787,9.861-8.758C491.882,333.141,518.368,304.362,523.126,287.172
		z"/>
	<path fill-rule="evenodd" clip-rule="evenodd" fill="#6A412F" d="M553.18,271.458l18.79-17.41
		c-15.191-1.897-37.229,4.354-41.599,21.777C535.207,270.79,544.783,270.412,553.18,271.458z"/>
	<path fill-rule="evenodd" clip-rule="evenodd" fill="#402218" d="M541.787,312.462c14.093-33.604,60.478-33.445,84.502-8.17
		C629.337,307.796,584.533,288.466,541.787,312.462z"/>
	<path fill-rule="evenodd" clip-rule="evenodd" fill="#402218" d="M617.978,256.356c19.939-0.883,30.715,22.137,23.816,39.953
		C640.771,298.635,639.863,271.925,617.978,256.356z"/>
	<path fill-rule="evenodd" clip-rule="evenodd" fill="#402218" d="M570.704,262.453c17.41-14.953,43.482-1.794,49.886,19.217
		C621.316,284.5,601.543,260.99,570.704,262.453z"/>
	
		<path fill-rule="evenodd" clip-rule="evenodd" fill="#1B1414" stroke="#1B1414" stroke-width="0.365" stroke-miterlimit="22.9256" d="
		M554.938,398.024c7.36-0.023,13.348,5.629,13.372,12.631c0.025,6.997-5.921,12.691-13.276,12.719
		c-7.36,0.023-13.343-5.633-13.367-12.631C541.64,403.746,547.586,398.047,554.938,398.024z"/>
	<path fill-rule="evenodd" clip-rule="evenodd" fill="#FFFFFF" d="M560.105,400.85c1.556-0.005,2.817,1.247,2.826,2.803
		c0,1.556-1.252,2.817-2.807,2.821c-1.551,0.01-2.819-1.252-2.821-2.803C557.297,402.121,558.554,400.854,560.105,400.85z"/>
	<path fill-rule="evenodd" clip-rule="evenodd" fill="#FFFFFF" d="M639.779,403.321c-0.077,16.167,12.049,21.987,28.284,21.936
		c16.23-0.056,25.773-8.025,24.82-21.861C692.005,378.152,643.546,373.168,639.779,403.321z"/>
	
		<path fill-rule="evenodd" clip-rule="evenodd" fill="#1B1414" stroke="#1B1414" stroke-width="0.365" stroke-miterlimit="22.9256" d="
		M665.699,392.694c-7.327,0.033-13.247,5.699-13.224,12.668c0.023,6.969,5.988,12.608,13.313,12.58
		c7.327-0.023,13.245-5.699,13.219-12.668C678.988,398.3,673.028,392.671,665.699,392.694z"/>
	<path fill-rule="evenodd" clip-rule="evenodd" fill="#FFFFFF" d="M660.799,395.544c-1.666,0.005-3.024,1.368-3.015,3.036
		c0.005,1.677,1.364,3.032,3.034,3.027c1.675-0.01,3.024-1.369,3.015-3.046C663.833,396.893,662.474,395.544,660.799,395.544z"/>
	<path fill-rule="evenodd" clip-rule="evenodd" fill="#6A412F" d="M659.844,286.462l1.436-0.752
		c14.118-7.394,40.256-2.153,56.225,11.028c7.758,6.409,14.366,26.556,9.814,38.626c-1.018,2.7-29.849,19.395-32.095,21.044
		c-6.995-46.599-25.554-58.142-34.434-47.314C657.265,313.387,645.695,293.871,659.844,286.462z"/>
	<path fill-rule="evenodd" clip-rule="evenodd" fill="#6A412F" d="M687.289,291.909l-29.826-3.097
		c12.892-12.444,37.909-22.072,54.24-8.833C703.643,278.666,694.406,285.033,687.289,291.909z"/>
	<path fill-rule="evenodd" clip-rule="evenodd" fill="#6A412F" d="M699.668,302.381l-26.191-12.645
		c15.863-7.11,40.527-9.987,53.361,7.506C719.913,293.399,708.429,298.449,699.668,302.381z"/>
	<path fill-rule="evenodd" clip-rule="evenodd" fill="#6A412F" d="M727.704,334.066l-16.554-18.927
		c-2.291,14.854,3.225,36.66,20.193,41.428C726.543,351.681,726.439,342.278,727.704,334.066z"/>
	<path fill-rule="evenodd" clip-rule="evenodd" fill="#6A412F" d="M720.427,309.108l-4.734-12.944
		c7.74,2.822,16.765,11.206,14.586,20.619C729.199,313.195,724.703,310.664,720.427,309.108z"/>
	<path fill-rule="evenodd" clip-rule="evenodd" fill="#402218" d="M715.837,331.53c1.488-19.54-20.761-30.83-38.455-24.608
		C675.065,307.852,701.247,309.57,715.837,331.53z"/>
	<path fill-rule="evenodd" clip-rule="evenodd" fill="#402218" d="M693.098,286.009c-9.328-5.311-20.13,3.073-21.186,13.289
		C671.835,300.662,678.813,288.102,693.098,286.009z"/>
	<path fill-rule="evenodd" clip-rule="evenodd" fill="#402218" d="M714.242,300.504c-4.676-11.421-20.378-11.51-28.592-3.017
		C684.608,298.663,699.834,292.254,714.242,300.504z"/>
	<path fill-rule="evenodd" clip-rule="evenodd" fill="#AC8A63" d="M585.708,372.673c0-1.658,1.345-3.003,3.006-3.003
		c1.651,0,3.001,1.345,3.001,3.003c-0.009,8.619,0.171,34.973,1.11,55.947c0.532,11.958,1.294,22.043,2.382,25.687
		c1.812,3.326,4.846,4.914,8.343,5.339c4.987,0.603,10.875-1.009,15.866-3.466c1.488-0.724,3.287-0.107,4.01,1.383
		c0.736,1.485,0.119,3.284-1.376,4.008c-5.909,2.915-13.009,4.807-19.213,4.059c-5.418-0.663-10.162-3.233-13.025-8.655
		c-0.11-0.178-0.198-0.378-0.262-0.594c-1.303-3.994-2.163-14.798-2.735-27.504C585.883,407.899,585.698,381.362,585.708,372.673z"
		/>
	<path fill-rule="evenodd" clip-rule="evenodd" fill="#AC8A63" d="M658.578,464.415c1.005-0.958,2.588-0.916,3.553,0.084
		c0.949,1.004,0.909,2.593-0.096,3.541c-9.307,8.904-27.046,15.648-44.867,17.765c-16.197,1.924-32.616,0.047-43.119-7.46
		c-1.124-0.803-1.394-2.368-0.591-3.494c0.804-1.126,2.368-1.392,3.497-0.589c9.401,6.727,24.531,8.347,39.626,6.563
		C633.419,478.821,650.03,472.585,658.578,464.415z"/>
	<path fill-rule="evenodd" clip-rule="evenodd" fill="#AC8A63" d="M602.318,493.297c0.1-0.509,6.232,1.705,12.063,1.537
		c5.456-0.154,10.631-2.709,10.655-2.383c-1.165,4.994-6.098,7.712-10.627,7.778C606.371,500.36,602.484,495.857,602.318,493.297z"
		/>
	<path fill-rule="evenodd" clip-rule="evenodd" fill="#AC8A63" d="M664.795,474.645c-2.55-7.526-6.507-10.398-14.03-11.169
		C658.895,456.414,670.398,465.494,664.795,474.645z"/>
	<path fill-rule="evenodd" clip-rule="evenodd" fill="#AC8A63" d="M583.414,471.277c-7.64,2.2-10.699,6.003-11.825,13.49
		C564.919,476.313,574.527,465.251,583.414,471.277z"/>
	<path fill-rule="evenodd" clip-rule="evenodd" fill="#AC8A63" d="M594.725,536.384c0.168,0.593,11.022-1.99,21.317-1.799
		c9.641,0.187,18.794,3.172,18.832,2.784c-2.065-5.825-10.779-8.997-18.781-9.085C601.889,528.144,595.024,533.385,594.725,536.384z
		"/>
	<path fill-rule="evenodd" clip-rule="evenodd" fill="#E3E0DF" d="M706.775,693.962l-1.889-54.372
		c-5.236,22.753-11.472,106.815-34.649,114.925c-3.249,1.139-24.65,6.474-24.64,6.736c0.922,23.393-29.186,21.081-46.462,19.311
		c-18.566-1.91-11.431-36.832,30.991-46.969c0.147-0.033,34.983-22.608,19.514-19.885c-32.946,5.778-60.968,7.591-92.76,10.136
		c0.147,2.168,0.294,4.326,0.449,6.475c0.913,12.654-2.032,48.683-4.211,63.303l144.281,0.673c0.023-0.29,0.044-0.579,0.023-0.878
		c-2.221-37.356-0.175-40.453,0.178-65.415C699.705,717.957,703.12,706.289,706.775,693.962z"/>
	<path fill-rule="evenodd" clip-rule="evenodd" fill="#AC8A63" d="M613.001,545.222c2.161,0,3.929-1.509,3.929-3.364
		c0-1.859-1.768-3.368-3.929-3.368c-2.16,0-3.928,1.509-3.928,3.368C609.073,543.713,610.841,545.222,613.001,545.222z"/>
	<path fill-rule="evenodd" clip-rule="evenodd" fill="#E3C6A4" d="M524.163,442.853c-4.06-19.124,47.592-31.232,56.853-11.047
		c0.518,8.394-18.666,8.679-32.198,11.253C539.694,444.792,535.093,449.243,524.163,442.853z"/>
	<path fill-rule="evenodd" clip-rule="evenodd" fill="#E3C6A4" d="M637.78,436.589c-4.061-19.119,47.599-31.227,56.85-11.047
		c0.523,8.398-18.666,8.684-32.193,11.253C653.325,438.528,648.712,442.984,637.78,436.589z"/>
	<path fill-rule="evenodd" clip-rule="evenodd" fill="#6A412F" d="M709.185,381.544c0.087,0.369-2.754,7.371-4.213,24.033
		c-0.119,1.332,1.268,23.907,0.726,32.03c-0.203,2.934-2.558,0.07-2.569,0.135c-2.896,1-8.375-57.609-7.862-76.756
		c0.061-2.111,9.866,18.843,12.311,19.114L709.185,381.544z"/>
	<path fill-rule="evenodd" clip-rule="evenodd" fill="#1B1414" d="M601.356,1125.064c0.577-2.98-21.494-13.107-46.602-13.033
		c-51.894,0.173-76.325,18.353-68.12,33.684c11.322,5.708,87.414,5.61,113.325,0.318
		C602.802,1143.875,606.394,1126.106,601.356,1125.064z"/>
	<path fill-rule="evenodd" clip-rule="evenodd" fill="#1B1414" d="M624.609,1123.611c-0.61-3.144,22.599-13.784,48.996-13.705
		c54.557,0.182,80.244,19.292,71.623,35.412c-11.907,5.998-91.903,5.895-119.15,0.336
		C623.091,1143.389,619.314,1124.704,624.609,1123.611z"/>
	<path fill-rule="evenodd" clip-rule="evenodd" fill="#1B1414" d="M591.944,598.861l2.078-18.021
		c3.029,8.805,37.122,7.035,47.079,2.396c6.246-2.905,16.9-8.623,11.94,4.769C649.511,597.516,609.192,609.717,591.944,598.861z"/>
	<path fill-rule="evenodd" clip-rule="evenodd" fill="#AFAFB0" d="M632.125,599.519c0.803,0.131,3.699-2.219,4.519,0.383
		c4.8,15.186,7.495,71.347,7.495,84.492c0,8.693,8.992,96.819-4.617,97.847c-31.133,2.345-54.31-0.958-68.2-2.387
		c-1.852-0.201-4.445-3.695-1.885-3.503c22.947,1.719,64.752,2.653,68.475-0.313C650.011,766.421,630.07,599.207,632.125,599.519z"
		/>
	<path fill-rule="evenodd" clip-rule="evenodd" fill="#282021" d="M621.844,622.404c3.816,0,6.932-3.111,6.932-6.927
		c0-3.817-3.116-6.928-6.932-6.928c-3.814,0-6.93,3.111-6.93,6.928C614.914,619.293,618.03,622.404,621.844,622.404z"/>
	<path fill-rule="evenodd" clip-rule="evenodd" fill="#282021" d="M622.766,652.43c3.817,0,6.932-3.111,6.932-6.928
		c0-3.812-3.115-6.927-6.932-6.927c-3.814,0-6.93,3.115-6.93,6.927C615.837,649.319,618.953,652.43,622.766,652.43z"/>
	<path fill-rule="evenodd" clip-rule="evenodd" fill="#282021" d="M625.078,748.983c3.817,0,6.932-3.111,6.932-6.923
		c0-3.821-3.115-6.937-6.932-6.937c-3.818,0-6.93,3.116-6.93,6.937C618.149,745.872,621.26,748.983,625.078,748.983z"/>
	<path fill-rule="evenodd" clip-rule="evenodd" fill="#282021" d="M625.536,774.394c3.823,0,6.934-3.111,6.934-6.927
		c0-3.817-3.111-6.932-6.934-6.932c-3.807,0-6.927,3.116-6.927,6.932C618.609,771.283,621.729,774.394,625.536,774.394z"/>
	<path fill-rule="evenodd" clip-rule="evenodd" fill="#282021" d="M625.078,798.418c3.817,0,6.932-3.106,6.932-6.932
		c0-3.816-3.115-6.922-6.932-6.922c-3.818,0-6.93,3.106-6.93,6.922C618.149,795.312,621.26,798.418,625.078,798.418z"/>
	<path fill-rule="evenodd" clip-rule="evenodd" fill="#282021" d="M648.026,627.56c-1.969,7.32-0.376,18.783,1.628,19.185
		c1.651,0.341,11.739,2.06,22.291,1.878c13.177-0.224,27.147-2.639,26.981-5.465c-0.743-12.612,0.596-17.246-1.983-17.274
		c-2.051-0.019-14.132,2.494-24.341,2.517C660.598,628.425,648.318,626.449,648.026,627.56z"/>
	<path fill-rule="evenodd" clip-rule="evenodd" fill="#C6A479" d="M474.23,739.744c-0.129-0.052-36.739-6.988-27.1-11.893
		c9.37-4.765,70.733,8.819,88.115,0.192c11.673-5.802,13.763,10.744-8.815,11.664c-0.703,0.028-9.961,5.068-20.327,4.662
		C501.799,744.195,475.695,740.412,474.23,739.744z"/>
	<g>
		<path fill-rule="evenodd" clip-rule="evenodd" fill="#979898" d="M503.042,736.096c99.176,0,180.067-15.042,180.067-33.493
			c0-18.442-80.891-33.492-180.067-33.492c-99.176,0-180.067,15.05-180.067,33.492C322.975,721.054,403.866,736.096,503.042,736.096
			z"/>
		<path fill-rule="evenodd" clip-rule="evenodd" fill="#818081" d="M503.042,730.018c107.825,0,195.769-13.682,195.769-30.461
			c0-16.765-87.944-30.447-195.769-30.447s-195.769,13.682-195.769,30.447C307.273,716.336,395.217,730.018,503.042,730.018z"/>
		<path fill-rule="evenodd" clip-rule="evenodd" fill="#CBC8C7" d="M502.79,726.851c108.803,0,197.54-13.593,197.54-30.27
			c0-16.666-88.736-30.26-197.54-30.26c-108.799,0-197.539,13.593-197.539,30.26C305.25,713.258,393.991,726.851,502.79,726.851z"/>
		<path fill-rule="evenodd" clip-rule="evenodd" fill="#EDE9E9" d="M502.79,721.026c93.793,0,170.293-11.375,170.293-25.327
			c0-13.949-76.5-25.323-170.293-25.323s-170.293,11.374-170.293,25.323C332.497,709.652,408.997,721.026,502.79,721.026z"/>
		<path fill-rule="evenodd" clip-rule="evenodd" fill="#979898" d="M502.79,667.462c51.028,0,97.24,3.111,130.695,8.142
			c33.946,5.096,54.943,12.369,54.943,20.609c0,8.235-20.997,15.513-54.943,20.609c-33.455,5.021-79.667,8.133-130.695,8.133
			s-97.235-3.111-130.704-8.133c-33.941-5.097-54.933-12.374-54.933-20.609c0-8.24,20.992-15.513,54.933-20.609
			C405.555,670.573,451.762,667.462,502.79,667.462L502.79,667.462z M633.185,677.598c-33.359-5.008-79.463-8.109-130.396-8.109
			c-50.937,0-97.041,3.102-130.4,8.109c-32.876,4.942-53.207,11.533-53.207,18.615c0,7.072,20.331,13.673,53.207,18.605
			c33.359,5.008,79.464,8.105,130.4,8.105c50.932,0,97.037-3.097,130.396-8.105c32.881-4.932,53.214-11.533,53.214-18.605
			C686.399,689.131,666.066,682.541,633.185,677.598z"/>
		<g>
			<path fill-rule="evenodd" clip-rule="evenodd" fill="#227A4C" d="M485.931,705.327c0.331-3.891,9.356-6.475,20.163-5.779
				c10.804,0.692,19.299,4.405,18.972,8.282c-0.334,3.882-9.361,6.469-20.165,5.773C494.09,712.912,485.602,709.203,485.931,705.327
				z"/>
			<path fill-rule="evenodd" clip-rule="evenodd" fill="#5DA74C" d="M485.541,702.505c0.337-3.891,9.361-6.474,20.168-5.783
				c10.804,0.696,19.299,4.405,18.972,8.282c-0.334,3.882-9.361,6.469-20.166,5.778
				C493.704,710.091,485.217,706.382,485.541,702.505z"/>
			<path fill-rule="evenodd" clip-rule="evenodd" fill="#8FBD73" d="M488.795,702.29c0.266-3.186,7.682-5.307,16.55-4.741
				c8.866,0.565,15.845,3.611,15.573,6.797c-0.271,3.19-7.682,5.316-16.554,4.75C495.493,708.521,488.519,705.481,488.795,702.29z"
				/>
		</g>
		<path fill-rule="evenodd" clip-rule="evenodd" fill="#818081" d="M541.724,683.087c-1.565-0.495-3.763-0.78-6.851-0.654
			c-1.805,0.065-3.543,0.672-4.902,1.303l-4.834,0.271c-1.878-0.953-4.795-2.153-8.182-2.513c-8.118-0.855-17.757,0.486-14.28,3.761
			c-3.483,0.191-7.021,0.387-10.664,0.593c-3.322-3.76-11.55-5.867-17.692-3.008c-0.441,0.201,0.848-8.74-15.721-7.95
			c-5.285,0.252-10.181,4.152-10.746,4.736c-0.077,0.01-6.479-5.26-14.908-6.292c-12.65-1.556-27.889,1.233-18.643,7.787
			c-2.149,0.164-4.006,0.505-5.264,1.005c-7.308-0.07-17.274,0.238-13.072,3.61c0.537,0.425,1.497,0.776,2.511,1.065
			c-1.759,0.22-2.892,0.607-2.56,1.28c-0.771,0-1.621,0-2.567,0c-20.735,0-6.523,4.975-4.533,4.975
			c-7.089,0-23.732-0.724-20.836,4.559c0.561,1.023,2.786,1.78,5.951,2.322c-0.028,0.093-0.042,0.182-0.054,0.271
			c-2.534,1.719-1.702,3.634,3.111,5.33c2.775,0.971,6.575,1.78,10.993,2.378c-7.525,1.35-12.495,3.195-11.512,4.414
			c0.192,0.238,0.61,0.444,1.224,0.593c0,0.112,0.037,0.215,0.119,0.327c1.126,1.383,9.655,1.406,19.042,0.047
			c3.863-0.552,7.278-1.266,9.875-1.999c3.919,0.691,10.265,0.976,17.547,0.752c-0.028,0.089-0.019,0.168,0.014,0.248
			c0.504,1.182,7.401,1.621,15.417,0.985c3.298-0.271,6.276-0.682,8.597-1.139c3.548,0.887,10.059,1.495,17.538,1.523
			c8.829,0.037,16.412-0.747,19.441-1.878c1.119,1.5,9.466,2.845,19.841,3.116c11.369,0.29,20.868-0.817,21.216-2.476
			c0.037-0.215-0.072-0.434-0.329-0.649c41.618,6.157,103.476-0.836,117.116-6.629c6.14-2.396,8.8-5.376,7.016-8.534
			c-0.762-1.35-3.473-2.55-7.026-3.536c-5.005-2.312-13.355-4.153-19.789-4.279c-4.083,0.075-8.006,0.149-11.792,0.215
			c-0.156-0.285-0.343-0.565-0.573-0.841c-1.154-1.411-4.337-2.588-8.366-3.494c-5.923-2.256-15.298-3.891-22.195-3.765
			C565.979,681.732,553.516,682.433,541.724,683.087z"/>
		<path fill-rule="evenodd" clip-rule="evenodd" fill="#275D3F" d="M542.31,668.237c12.372-18.582-4.239-42.265-14.747-30.264
			c-0.437,0.495,0.843-21.408-15.697-19.483c-5.276,0.621-10.172,10.164-10.737,11.612c-0.07,0.014-6.465-12.883-14.885-15.419
			c-13.285-4.004-29.412,3.728-17.019,21.599c0.794,1.135-26.383-3.942-19.909,8.773c2.499,4.9,14.315,5.755-2.611,5.755
			c-20.705,0-6.511,12.182-4.524,12.182c-7.082,0-23.704-1.775-20.815,11.164c2.231,9.964,31.101,9.852,40.163,5.984
			c16.667-7.123,17.519,2.149,34.216,2.149c9.072,0,2.581-7.814,12-3.699c22.625,9.87,18.772-0.574,28.527,4.036
			C546.302,687.356,540.963,670.269,542.31,668.237z"/>
		<path fill-rule="evenodd" clip-rule="evenodd" fill="#1D9450" d="M553.423,666.378c8.223-10.637-2.817-24.192-9.805-17.321
			c-0.289,0.285,0.561-12.252-10.438-11.155c-3.506,0.36-6.759,5.82-7.135,6.652c-0.051,0.004-4.309-7.381-9.898-8.828
			c-8.828-2.289-19.556,2.135-11.321,12.364c0.523,0.65-17.54-2.256-13.238,5.026c1.663,2.798,9.522,3.289-1.733,3.289
			c-13.766,0-4.333,6.979-3.011,6.979c-4.709,0-15.76-1.023-13.834,6.39c1.476,5.699,20.68,5.638,26.7,3.42
			c11.085-4.073,11.645,1.233,22.749,1.233c6.03,0,1.717-4.47,7.981-2.116c15.046,5.648,12.477-0.331,18.967,2.307
			C556.076,677.327,552.524,667.546,553.423,666.378z"/>
		<path fill-rule="evenodd" clip-rule="evenodd" fill="#AFAFB0" d="M516.632,660.88c39.086-1.799,62.015-2.691,101.094-4.489
			c8.415,0.425,23.099,6.278,25.017,14.583c1.688,7.339-0.834,14.299-6.675,19.899c-13.951,14.513-81.033,32.334-120.04,11.608
			C502.023,695.531,491.315,657.914,516.632,660.88z"/>
		<path fill-rule="evenodd" clip-rule="evenodd" fill="#E3E1E0" d="M516.327,657.087c39.016-1.738,61.911-2.602,100.923-4.339
			c8.443,0.401,20.345,8.427,22.594,16.433c1.986,7.086-1.112,10.202-6.731,15.606c-13.357,14.009-82.635,26.598-115.705,12.448
			C507.424,692.7,490.883,654.233,516.327,657.087z"/>
		<g>
			<defs>
				<path id="SVGID_3_" d="M518.415,658.428c37.066-1.649,59.396-1.687,96.457-3.335c9.812-0.411,19.213,6.726,21.357,14.34
					c1.889,6.732-1.579,9.184-6.911,14.322c-17.363,14.597-78.478,24.547-109.885,11.112
					C509.943,690.547,494.241,655.723,518.415,658.428z"/>
			</defs>
			<use xlink:href="#SVGID_3_"  overflow="visible" fill-rule="evenodd" clip-rule="evenodd" fill="#8E3632"/>
			<clipPath id="SVGID_4_">
				<use xlink:href="#SVGID_3_"  overflow="visible"/>
			</clipPath>
			<g clip-path="url(#SVGID_4_)">
				<g>
					<path fill-rule="evenodd" clip-rule="evenodd" fill="#80312E" d="M513.624,678.715l0.274,4.676
						c4.209,5.124,30.18,26.943,38.719,28.237c3.863,0.584,1.423,1.322,8.044,0.65c5.22-0.537-0.612,0.196-6.577-3.228
						C545.834,704.322,519.068,685.315,513.624,678.715z"/>
					<path fill-rule="evenodd" clip-rule="evenodd" fill="#80312E" d="M515.715,665.346l0.285,4.68
						c4.2,5.12,46.57,38.63,55.113,39.924c3.858,0.584,1.418,1.332,8.034,0.654c5.227-0.533-0.605,0.196-6.575-3.228
						C564.325,702.659,521.166,671.956,515.715,665.346z"/>
					<path fill-rule="evenodd" clip-rule="evenodd" fill="#80312E" d="M535.726,662.305l0.29,4.989
						c4.492,5.465,49.692,41.219,58.805,42.601c4.129,0.612,1.518,1.406,8.581,0.696c5.58-0.57-0.651,0.201-7.021-3.452
						C587.581,702.103,541.535,669.349,535.726,662.305z"/>
					<path fill-rule="evenodd" clip-rule="evenodd" fill="#80312E" d="M558.76,655.779l0.299,4.993
						c4.477,5.474,49.694,41.228,58.796,42.606c4.122,0.617,1.525,1.411,8.576,0.696c5.584-0.574-0.647,0.206-7.011-3.447
						C610.623,695.587,564.573,662.833,558.76,655.779z"/>
					<path fill-rule="evenodd" clip-rule="evenodd" fill="#80312E" d="M579.336,649.604l0.292,4.998
						c4.489,5.461,49.694,41.214,58.808,42.596c4.12,0.617,1.513,1.411,8.569,0.696c5.584-0.565-0.647,0.201-7.009-3.447
						C631.193,689.412,585.15,656.648,579.336,649.604z"/>
					<path fill-rule="evenodd" clip-rule="evenodd" fill="#80312E" d="M599.511,642.924l0.294,4.993
						c4.492,5.465,49.692,41.214,58.801,42.592c4.129,0.63,1.523,1.424,8.581,0.701c5.58-0.565-0.651,0.201-7.016-3.447
						C651.365,682.723,605.32,649.973,599.511,642.924z"/>
				</g>
			</g>
		</g>
		<path fill-rule="evenodd" clip-rule="evenodd" fill="#247147" d="M480.545,668.686c11.769-17.69-4.043-40.228-14.041-28.807
			c-0.418,0.481,0.808-20.385-14.941-18.54c-5.024,0.584-9.681,9.674-10.218,11.047c-0.068,0.014-6.157-12.261-14.17-14.681
			c-12.64-3.807-27.994,3.559-16.193,20.562c0.755,1.084-25.112-3.751-18.953,8.347c2.375,4.662,13.626,5.479-2.487,5.479
			c-19.703,0-6.199,11.594-4.304,11.594c-6.736,0-22.562-1.682-19.808,10.636c2.123,9.478,29.599,9.375,38.227,5.685
			c15.858-6.778,16.669,2.041,32.565,2.041c8.635,0,2.455-7.427,11.419-3.517c21.53,9.394,17.865-0.551,27.151,3.835
			C484.339,686.88,479.261,670.606,480.545,668.686z"/>
		<path fill-rule="evenodd" clip-rule="evenodd" fill="#1D9450" d="M458.028,677.65c9.49-12.271-3.254-27.901-11.313-19.983
			c-0.337,0.331,0.651-14.135-12.038-12.86c-4.05,0.407-7.794,6.717-8.231,7.665c-0.061,0.01-4.961-8.511-11.417-10.183
			c-10.186-2.644-22.562,2.467-13.049,14.261c0.605,0.747-20.24-2.602-15.275,5.792c1.918,3.237,10.984,3.798-2.001,3.798
			c-15.877,0-4.991,8.039-3.468,8.039c-5.432,0-18.18-1.163-15.964,7.381c1.707,6.582,23.851,6.507,30.801,3.947
			c12.785-4.704,13.437,1.42,26.243,1.42c6.955,0,1.978-5.162,9.204-2.443c17.344,6.516,14.39-0.387,21.872,2.663
			C461.086,690.271,456.991,678.99,458.028,677.65z"/>
		<path fill-rule="evenodd" clip-rule="evenodd" fill="#FEFDFC" d="M586.691,678.911c0.299-3.732-18.603-4.508-20.45-0.579
			c-0.827,1.527,4.606,4.265,12.089,3.9C583.199,681.765,587.971,681.747,586.691,678.911z"/>
		<path fill-rule="evenodd" clip-rule="evenodd" fill="#CBC8C7" d="M469.781,653.117c41.571-5.829,65.969-9.071,107.54-14.896
			c9.034-0.393,25.302,4.4,28.179,13.079c2.536,7.675,0.541,15.354-5.145,21.922c-13.453,16.905-83.331,42.643-127.072,24.407
			C457.626,691.593,442.429,652.481,469.781,653.117z"/>
		<path fill-rule="evenodd" clip-rule="evenodd" fill="#E3E0DF" d="M469.064,649.095c41.508-5.75,65.878-8.96,107.386-14.723
			c9.048-0.411,22.567,6.969,25.773,15.298c2.836,7.371-0.166,11.014-5.631,17.349c-12.869,16.298-85.616,36.669-122.362,24.864
			C463.113,688.029,441.593,648.595,469.064,649.095z"/>
		<g>
			<defs>
				<path id="SVGID_5_" d="M471.432,650.319c39.42-5.465,63.28-7.74,102.71-13.201c10.438-1.42,21.193,5.274,24.245,13.182
					c2.693,6.997-0.771,9.968-5.956,15.99c-17.094,17.335-81.379,34.057-116.277,22.856
					C465.59,685.478,445.337,649.847,471.432,650.319z"/>
			</defs>
			<use xlink:href="#SVGID_5_"  overflow="visible" fill-rule="evenodd" clip-rule="evenodd" fill="#9C4036"/>
			<clipPath id="SVGID_6_">
				<use xlink:href="#SVGID_5_"  overflow="visible"/>
			</clipPath>
			<g clip-path="url(#SVGID_6_)">
				<path fill-rule="evenodd" clip-rule="evenodd" fill="#83322E" d="M457.262,658.26l-0.357,5.017
					c3.796,5.498,28.604,28.915,37.585,30.297c4.061,0.621,1.34,1.425,8.53,0.706c5.684-0.574-0.682,0.201-6.608-3.471
					C488.23,685.74,462.176,665.346,457.262,658.26z"/>
				<path fill-rule="evenodd" clip-rule="evenodd" fill="#83322E" d="M461.386,643.924l-0.357,5.017
					c3.791,5.498,44.551,41.452,53.53,42.839c4.066,0.626,1.345,1.425,8.534,0.706c5.683-0.575-0.682,0.205-6.598-3.466
					C508.309,683.946,466.303,651.005,461.386,643.924z"/>
				<path fill-rule="evenodd" clip-rule="evenodd" fill="#83322E" d="M483.276,640.659l-0.378,5.349
					c4.038,5.862,47.534,44.222,57.114,45.707c4.335,0.668,1.427,1.518,9.105,0.743c6.065-0.607-0.727,0.224-7.044-3.69
					C533.334,683.358,488.524,648.212,483.276,640.659z"/>
				<path fill-rule="evenodd" clip-rule="evenodd" fill="#83322E" d="M508.911,633.671l-0.381,5.348
					c4.038,5.862,47.536,44.222,57.112,45.703c4.333,0.668,1.427,1.518,9.104,0.748c6.06-0.607-0.729,0.224-7.049-3.7
					C558.967,676.37,514.155,641.219,508.911,633.671z"/>
				<path fill-rule="evenodd" clip-rule="evenodd" fill="#83322E" d="M531.854,627.028l-0.381,5.358
					c4.043,5.862,47.531,44.232,57.103,45.698c4.342,0.677,1.436,1.523,9.113,0.752c6.061-0.603-0.724,0.229-7.044-3.69
					C581.915,669.741,537.097,634.591,531.854,627.028z"/>
				<path fill-rule="evenodd" clip-rule="evenodd" fill="#83322E" d="M554.439,619.858l-0.386,5.358
					c4.04,5.871,47.531,44.232,57.117,45.703c4.337,0.668,1.427,1.518,9.099,0.752c6.07-0.607-0.721,0.22-7.049-3.699
					C604.493,662.566,559.682,627.42,554.439,619.858z"/>
			</g>
		</g>
		<path fill-rule="evenodd" clip-rule="evenodd" fill="#E3E0DF" d="M546.416,665.379c-0.058-4.018-20.331-2.962-21.908,1.424
			c-0.736,1.714,5.349,4.097,13.306,2.962C542.966,668.784,548.065,668.275,546.416,665.379z"/>
		<path fill-rule="evenodd" clip-rule="evenodd" fill="#AFAFB0" d="M540.865,665.934c-0.026-1.957-9.905-1.434-10.672,0.696
			c-0.36,0.831,2.606,1.995,6.479,1.439C539.185,667.593,541.668,667.35,540.865,665.934z"/>
		<g>
			<path fill-rule="evenodd" clip-rule="evenodd" fill="#B62F35" d="M396.952,669.368c16.894-4.368,38.08-1.439,47.333,6.558
				c9.242,7.988,3.048,18.012-13.843,22.384c-16.893,4.381-38.079,1.443-47.331-6.544
				C373.858,683.769,380.057,673.745,396.952,669.368z"/>
			<path fill-rule="evenodd" clip-rule="evenodd" fill="#D54C34" d="M398.277,665.243c16.886-4.372,38.082-1.444,47.326,6.558
				c9.247,7.992,3.048,18.012-13.838,22.389c-16.896,4.372-38.089,1.444-47.335-6.554
				C375.18,679.644,381.379,669.62,398.277,665.243z"/>
			<path fill-rule="evenodd" clip-rule="evenodd" fill="#9F2F32" d="M388.586,672.003c-3.564,1.256-3.905,7.497-1.717,8.646
				c4.148,2.195,18.341-1.266,21.277-2.78C415.843,673.903,397.088,669.013,388.586,672.003z"/>
			<path fill-rule="evenodd" clip-rule="evenodd" fill="#9F2F32" d="M393.624,688.02c-0.165,2.149,10.155,6.268,13.509,6.175
				c6.369-0.164,9.594-7.745,8.919-9.828C414.278,678.916,394.014,682.891,393.624,688.02z"/>
			<path fill-rule="evenodd" clip-rule="evenodd" fill="#9F2F32" d="M431.664,692.121c4.185,0.444,13.012-5.199,13.42-6.689
				c0.775-2.812-13.514-5.55-17.701-5.601C416.415,679.658,421.698,691.06,431.664,692.121z"/>
			<path fill-rule="evenodd" clip-rule="evenodd" fill="#9F2F32" d="M438.904,669.741c3.812,0.495,8.406,5.601,7.393,6.89
				c-1.922,2.457-16.05,1.789-19.528,0.986C417.669,675.534,429.81,668.592,438.904,669.741z"/>
			<path fill-rule="evenodd" clip-rule="evenodd" fill="#9F2F32" d="M411.466,664.449c3.216-1.332,15.693-0.206,17.54,1.004
				c3.51,2.294-6.271,7.908-9.884,8.908C409.67,676.977,403.789,667.62,411.466,664.449z"/>
			<path fill-rule="evenodd" clip-rule="evenodd" fill="#E3907E" d="M416.842,680.074c2.322,0,4.214-0.916,4.214-2.046
				c0-1.121-1.892-2.046-4.214-2.046c-2.321,0-4.206,0.925-4.206,2.046C412.636,679.158,414.521,680.074,416.842,680.074z"/>
		</g>
		<g>
			<path fill-rule="evenodd" clip-rule="evenodd" fill="#B62F35" d="M433.324,680.616c13.629-3.265,30.587-0.607,37.893,5.942
				c7.308,6.544,2.188,14.504-11.435,17.765c-13.619,3.265-30.582,0.617-37.888-5.937
				C414.586,691.841,419.706,683.881,433.324,680.616z"/>
			<path fill-rule="evenodd" clip-rule="evenodd" fill="#D54C34" d="M434.443,677.323c13.619-3.266,30.587-0.603,37.893,5.937
				c7.306,6.554,2.188,14.513-11.435,17.779c-13.619,3.265-30.587,0.607-37.888-5.947
				C415.709,688.543,420.825,680.593,434.443,677.323z"/>
			<path fill-rule="evenodd" clip-rule="evenodd" fill="#9F2F32" d="M426.579,682.61c-2.882,0.953-3.254,5.947-1.509,6.909
				c3.298,1.817,14.742-0.748,17.12-1.92C448.419,684.526,433.439,680.335,426.579,682.61z"/>
			<path fill-rule="evenodd" clip-rule="evenodd" fill="#9F2F32" d="M430.384,695.531c-0.161,1.719,8.06,5.176,10.751,5.157
				c5.115-0.046,7.817-6.082,7.303-7.768C447.091,688.529,430.774,691.415,430.384,695.531z"/>
			<path fill-rule="evenodd" clip-rule="evenodd" fill="#9F2F32" d="M460.861,699.375c3.34,0.416,10.515-3.984,10.86-5.171
				c0.661-2.251-10.765-4.648-14.124-4.76C448.798,689.16,452.871,698.385,460.861,699.375z"/>
			<path fill-rule="evenodd" clip-rule="evenodd" fill="#9F2F32" d="M466.994,681.527c3.053,0.443,6.664,4.606,5.827,5.624
				c-1.579,1.953-12.907,1.21-15.688,0.509C449.861,685.857,459.707,680.457,466.994,681.527z"/>
			<path fill-rule="evenodd" clip-rule="evenodd" fill="#9F2F32" d="M445.047,676.874c2.602-1.023,12.596,0.061,14.065,1.056
				c2.786,1.901-5.148,6.259-8.068,7.011C443.428,686.899,438.844,679.313,445.047,676.874z"/>
			<path fill-rule="evenodd" clip-rule="evenodd" fill="#E3907E" d="M449.192,686.207c1.871,0.037,3.368,0.799,3.354,1.7
				c-0.014,0.916-1.542,1.621-3.415,1.584c-1.864-0.028-3.363-0.794-3.349-1.7C445.797,686.88,447.329,686.179,449.192,686.207z"/>
		</g>
		<g>
			<path fill-rule="evenodd" clip-rule="evenodd" fill="#B62F35" d="M413.974,656.298c19.941-2.826,43.877,3.293,53.448,13.663
				c9.571,10.375,1.16,21.062-18.79,23.893c-19.951,2.822-43.881-3.289-53.447-13.659
				C385.609,669.826,394.023,659.124,413.974,656.298z"/>
			<path fill-rule="evenodd" clip-rule="evenodd" fill="#D54C34" d="M416.016,651.734c19.953-2.821,43.881,3.293,53.457,13.668
				c9.567,10.37,1.156,21.067-18.794,23.893c-19.946,2.817-43.874-3.293-53.443-13.663
				C387.659,665.262,396.07,654.565,416.016,651.734z"/>
			<path fill-rule="evenodd" clip-rule="evenodd" fill="#9F2F32" d="M404.027,658.231c-4.244,0.976-5.456,8.086-3.092,9.698
				c4.482,3.055,21.211,0.929,24.783-0.43C435.055,663.958,414.173,655.915,404.027,658.231z"/>
			<path fill-rule="evenodd" clip-rule="evenodd" fill="#9F2F32" d="M407.729,677.253c-0.467,2.448,10.839,8.516,14.693,8.847
				c7.329,0.64,12.021-7.638,11.517-10.118C432.603,669.503,408.841,671.428,407.729,677.253z"/>
			<path fill-rule="evenodd" clip-rule="evenodd" fill="#9F2F32" d="M450.835,686.903c4.744,1.051,15.609-4.274,16.27-5.928
				c1.258-3.13-14.78-8.118-19.584-8.726C434.962,670.629,439.542,684.395,450.835,686.903z"/>
			<path fill-rule="evenodd" clip-rule="evenodd" fill="#9F2F32" d="M462.057,662.183c4.309,1.051,8.913,7.502,7.586,8.857
				c-2.534,2.569-18.652-0.033-22.534-1.402C436.94,666.061,451.776,659.67,462.057,662.183z"/>
			<path fill-rule="evenodd" clip-rule="evenodd" fill="#9F2F32" d="M431.265,652.537c3.863-1.107,18.023,1.794,19.993,3.429
				c3.73,3.097-8.224,8.259-12.491,8.936C427.583,666.668,422.042,655.182,431.265,652.537z"/>
			<path fill-rule="evenodd" clip-rule="evenodd" fill="#E3907E" d="M435.931,666.472c2.67,0.304,4.711,1.593,4.566,2.891
				c-0.143,1.299-2.434,2.102-5.099,1.803c-2.67-0.303-4.718-1.607-4.566-2.896C430.98,666.971,433.259,666.164,435.931,666.472z"/>
		</g>
		<g>
			<path fill-rule="evenodd" clip-rule="evenodd" fill="#227A4C" d="M448.172,703.486c0.121-3.896,8.995-6.969,19.825-6.862
				c10.823,0.098,19.5,3.34,19.385,7.236c-0.114,3.886-8.995,6.96-19.818,6.857C456.734,710.624,448.053,707.382,448.172,703.486z"
				/>
			<path fill-rule="evenodd" clip-rule="evenodd" fill="#5DA74C" d="M447.637,700.688c0.11-3.891,8.987-6.964,19.818-6.862
				c10.823,0.102,19.509,3.34,19.39,7.235c-0.119,3.891-8.994,6.965-19.818,6.862C456.197,707.825,447.513,704.589,447.637,700.688z
				"/>
			<path fill-rule="evenodd" clip-rule="evenodd" fill="#8FBD73" d="M450.862,700.305c0.096-3.2,7.383-5.722,16.265-5.638
				c8.899,0.084,16.024,2.742,15.922,5.933c-0.091,3.204-7.378,5.722-16.265,5.643C457.89,706.153,450.76,703.495,450.862,700.305z"
				/>
		</g>
		<g>
			<path fill-rule="evenodd" clip-rule="evenodd" fill="#227A4C" d="M466.132,699.847c-0.21-3.886,8.368-7.693,19.17-8.501
				c10.798-0.808,19.722,1.696,19.932,5.582c0.213,3.896-8.373,7.703-19.17,8.506C475.262,706.242,466.343,703.733,466.132,699.847z
				"/>
			<path fill-rule="evenodd" clip-rule="evenodd" fill="#5DA74C" d="M465.362,697.11c-0.212-3.896,8.373-7.698,19.17-8.506
				c10.802-0.808,19.726,1.695,19.932,5.582c0.208,3.891-8.373,7.693-19.175,8.507C474.492,703.495,465.572,701.005,465.362,697.11z
				"/>
			<path fill-rule="evenodd" clip-rule="evenodd" fill="#8FBD73" d="M468.54,696.451c-0.163-3.19,6.878-6.32,15.749-6.984
				c8.859-0.659,16.183,1.392,16.363,4.592c0.168,3.186-6.878,6.315-15.749,6.979C476.042,701.697,468.72,699.642,468.54,696.451z"
				/>
		</g>
		<g>
			<path fill-rule="evenodd" clip-rule="evenodd" fill="#227A4C" d="M428.067,707.526c-0.479-2.747,5.309-6.189,12.921-7.684
				c7.621-1.486,14.181-0.458,14.656,2.289c0.486,2.751-5.3,6.189-12.923,7.675C435.109,711.296,428.548,710.278,428.067,707.526z"
				/>
			<path fill-rule="evenodd" clip-rule="evenodd" fill="#5DA74C" d="M427.287,705.639c-0.488-2.747,5.304-6.185,12.921-7.675
				c7.616-1.495,14.182-0.472,14.66,2.289c0.481,2.747-5.308,6.18-12.927,7.67C434.329,709.414,427.763,708.391,427.287,705.639z"/>
			<path fill-rule="evenodd" clip-rule="evenodd" fill="#8FBD73" d="M429.492,704.906c-0.393-2.266,4.36-5.087,10.615-6.306
				c6.252-1.228,11.636-0.383,12.035,1.873c0.39,2.261-4.36,5.077-10.613,6.306C435.275,708.003,429.891,707.162,429.492,704.906z"
				/>
		</g>
		<g>
			<path fill-rule="evenodd" clip-rule="evenodd" fill="#227A4C" d="M407.437,701.253c-0.556-4.713,9.6-10.01,22.69-11.828
				c13.081-1.821,24.138,0.528,24.699,5.251c0.556,4.723-9.604,10.024-22.686,11.846
				C419.05,708.335,407.991,705.976,407.437,701.253z"/>
			<path fill-rule="evenodd" clip-rule="evenodd" fill="#5DA74C" d="M406.285,697.974c-0.556-4.713,9.599-10.02,22.686-11.832
				c13.091-1.817,24.147,0.537,24.703,5.26s-9.604,10.02-22.69,11.837C417.903,705.046,406.839,702.696,406.285,697.974z"/>
			<path fill-rule="evenodd" clip-rule="evenodd" fill="#8FBD73" d="M410.111,696.928c-0.458-3.873,7.883-8.226,18.624-9.716
				c10.746-1.49,19.822,0.439,20.277,4.316c0.458,3.877-7.882,8.226-18.624,9.716C419.645,702.738,410.566,700.809,410.111,696.928z
				"/>
		</g>
		<g>
			<path fill-rule="evenodd" clip-rule="evenodd" fill="#B62F35" d="M464.507,669.26c11.101-1.579,24.43,1.836,29.758,7.614
				c5.332,5.769,0.647,11.73-10.466,13.299c-11.106,1.579-24.43-1.827-29.758-7.6C448.709,676.79,453.394,670.834,464.507,669.26z"
				/>
			<path fill-rule="evenodd" clip-rule="evenodd" fill="#D54C34" d="M465.647,666.724c11.103-1.578,24.428,1.832,29.755,7.605
				c5.332,5.773,0.642,11.734-10.457,13.303c-11.11,1.57-24.439-1.831-29.767-7.609
				C449.851,674.249,454.536,668.294,465.647,666.724z"/>
			<path fill-rule="evenodd" clip-rule="evenodd" fill="#9F2F32" d="M458.969,670.339c-2.373,0.542-3.041,4.503-1.726,5.395
				c2.492,1.705,11.811,0.528,13.799-0.233C476.246,673.525,464.619,669.045,458.969,670.339z"/>
			<path fill-rule="evenodd" clip-rule="evenodd" fill="#9F2F32" d="M461.025,680.933c-0.257,1.359,6.035,4.737,8.186,4.923
				c4.08,0.351,6.689-4.255,6.406-5.633C474.877,676.617,461.644,677.687,461.025,680.933z"/>
			<path fill-rule="evenodd" clip-rule="evenodd" fill="#9F2F32" d="M485.032,686.305c2.635,0.588,8.686-2.383,9.053-3.302
				c0.698-1.743-8.226-4.517-10.898-4.858C476.19,677.248,478.743,684.909,485.032,686.305z"/>
			<path fill-rule="evenodd" clip-rule="evenodd" fill="#9F2F32" d="M491.278,672.54c2.398,0.579,4.966,4.181,4.22,4.933
				c-1.408,1.429-10.384-0.023-12.545-0.785C477.292,674.693,485.551,671.138,491.278,672.54z"/>
			<path fill-rule="evenodd" clip-rule="evenodd" fill="#9F2F32" d="M474.134,667.168c2.144-0.617,10.031,1,11.127,1.906
				c2.078,1.719-4.573,4.602-6.955,4.98C472.079,675.038,468.996,668.639,474.134,667.168z"/>
			<path fill-rule="evenodd" clip-rule="evenodd" fill="#E3907E" d="M476.731,674.917c1.488,0.177,2.621,0.902,2.537,1.616
				c-0.077,0.719-1.347,1.177-2.836,1.004c-1.48-0.164-2.627-0.888-2.536-1.607C473.968,675.202,475.246,674.753,476.731,674.917z"
				/>
		</g>
		<g>
			<path fill-rule="evenodd" clip-rule="evenodd" fill="#227A4C" d="M434.509,696.717c-0.299-4.745,10.132-9.487,23.295-10.584
				c13.173-1.103,24.085,1.85,24.384,6.596c0.294,4.75-10.137,9.482-23.305,10.58C445.717,704.411,434.808,701.459,434.509,696.717z
				"/>
			<path fill-rule="evenodd" clip-rule="evenodd" fill="#5DA74C" d="M433.535,693.378c-0.297-4.741,10.136-9.482,23.302-10.58
				c13.158-1.103,24.084,1.854,24.378,6.596c0.297,4.741-10.136,9.478-23.302,10.58
				C444.745,701.081,433.834,698.123,433.535,693.378z"/>
			<path fill-rule="evenodd" clip-rule="evenodd" fill="#8FBD73" d="M437.416,692.546c-0.247-3.901,8.315-7.782,19.126-8.693
				c10.809-0.906,19.771,1.518,20.014,5.419c0.245,3.886-8.317,7.782-19.128,8.688C446.621,698.857,437.662,696.437,437.416,692.546
				z"/>
		</g>
		<g>
			<path fill-rule="evenodd" clip-rule="evenodd" fill="#227A4C" d="M422.698,692.415c-0.951-4.662,8.728-10.786,21.611-13.7
				c12.89-2.91,24.108-1.486,25.059,3.172c0.95,4.657-8.728,10.79-21.616,13.695C434.866,698.497,423.643,697.073,422.698,692.415z"
				/>
			<path fill-rule="evenodd" clip-rule="evenodd" fill="#5DA74C" d="M421.275,689.248c-0.95-4.667,8.728-10.79,21.616-13.705
				c12.886-2.91,24.103-1.486,25.05,3.172c0.955,4.657-8.728,10.786-21.611,13.696C433.443,695.316,422.23,693.906,421.275,689.248z
				"/>
			<path fill-rule="evenodd" clip-rule="evenodd" fill="#8FBD73" d="M425,687.884c-0.775-3.83,7.163-8.862,17.744-11.253
				c10.587-2.387,19.792-1.219,20.572,2.606c0.78,3.821-7.168,8.857-17.746,11.244C434.995,692.864,425.781,691.701,425,687.884z"/>
		</g>
		<g>
			<path fill-rule="evenodd" clip-rule="evenodd" fill="#227A4C" d="M383.896,709.736c-1.07-3.237,5.295-8.422,14.226-11.584
				c8.919-3.158,17.022-3.107,18.096,0.131c1.07,3.237-5.299,8.418-14.224,11.58C393.071,713.029,384.962,712.968,383.896,709.736z"
				/>
			<path fill-rule="evenodd" clip-rule="evenodd" fill="#5DA74C" d="M382.612,707.597c-1.065-3.233,5.299-8.418,14.224-11.585
				c8.927-3.158,17.029-3.102,18.099,0.135c1.074,3.237-5.295,8.422-14.224,11.58C391.788,710.89,383.686,710.829,382.612,707.597z"
				/>
			<path fill-rule="evenodd" clip-rule="evenodd" fill="#8FBD73" d="M385.151,706.312c-0.883-2.658,4.348-6.913,11.673-9.511
				c7.327-2.593,13.981-2.546,14.861,0.112c0.881,2.644-4.351,6.913-11.673,9.501C392.678,709.012,386.027,708.965,385.151,706.312z
				"/>
		</g>
	</g>
	<path fill-rule="evenodd" clip-rule="evenodd" fill="#FFFFFF" d="M519.286,278.003c32.308-38.373,49.344-80.755,46.324-104.452
		c-0.775-6.044-11.356-5.517-21.35-7.66c-35.877-7.675-48.757-74.781-5.914-98.197c47.788-26.131,115.836-28.905,145.717,30.47
		c6.299,12.528,2.417,21.001,1.955,23.617c-0.355,2.018,1.315,0.551,11.274-5.227c11.323-6.577,72.125,7.722,74.447,32.478
		c5.731,61.02-21.189,24.991-84.212,53.266c-15.244,6.839-4.524,33.058,1.999,45.156c14.345,26.584,47.749,51.771,39.691,55.531
		C663.686,333.566,508.168,306.506,519.286,278.003z"/>
	<path fill-rule="evenodd" clip-rule="evenodd" fill="#E3E0DF" d="M552.638,226.979c10.059-21.011,14.66-40.153,12.972-53.429
		c-0.168-1.289-0.78-2.279-1.733-3.059c7.749,1.289,15.459,1.625,21.607-0.752c5.451-2.107,25.876,0.795,13.481,18.32
		C589.573,201.339,564.83,214.605,552.638,226.979z"/>
	<path fill-rule="evenodd" clip-rule="evenodd" fill="#E3E0DF" d="M519.286,278.003c3.83-4.554,22.695-32.721,26.086-37.351
		c12.274,15.368,74.517,32.353,121.616,22.23c22.338-4.802,14.222-18.755,12.335-26.481c-4.956-20.31-3.983-14.738,0.504-22.109
		c-0.89,10.697,5.332,25.084,9.7,33.161c14.345,26.584,47.749,51.771,39.691,55.531
		C663.686,333.566,508.168,306.506,519.286,278.003L519.286,278.003z M622.367,51.549c24.97,4.409,47.586,18.582,61.697,46.614
		c6.299,12.528,2.417,21.001,1.955,23.617c-0.355,2.018,1.315,0.551,11.274-5.227c11.323-6.577,72.125,7.722,74.447,32.478
		c4.594,48.945-11.816,35.45-51.019,42.788c4.956-2.476,9.733-5.367,13.971-9.006c33.107-28.442-11.325-48.613-23.26-48.286
		c-63.962,1.743-35.931-8.352-51.371-41.499C653.068,78.016,638.48,62.11,622.367,51.549z"/>
	<g>
		<path fill-rule="evenodd" clip-rule="evenodd" fill="#1B1414" d="M553.189,782.695c-10.765,89.953-21.534,183.675-27.994,276.146
			c2.419,20.282,41.284,29.578,84.586,31.077c2.228,0.079,4.472-18.372,6.722-18.344c2.326,0.037,4.662,18.568,7.002,18.568
			c42.951-0.098,86.947-7.348,101.951-18.745c-5.024-98.333-15.431-192.892-25.836-291.22
			C628.722,784.232,621.958,787.488,553.189,782.695z"/>
		<g>
			<defs>
				<path id="SVGID_7_" d="M694.263,780.495l27.1,293.508c-1.037,0.574-2.125,1.14-3.305,1.691l-27.233-294.994L694.263,780.495
					L694.263,780.495z M528.624,1067.174c0.894,1.224,1.936,2.382,3.134,3.49l26.859-287.6l-3.436-0.243L528.624,1067.174
					L528.624,1067.174z M536.667,1074.405l22.982-291.276l3.433,0.22l-23.118,292.99
					C538.804,1075.718,537.709,1075.069,536.667,1074.405L536.667,1074.405z M544.683,1078.6l19.546-295.176l3.443,0.215
					l-19.626,296.339C546.881,1079.539,545.767,1079.077,544.683,1078.6L544.683,1078.6z M553.012,1081.688l16.326-297.951
					l3.431,0.196l-16.368,298.782C555.254,1082.379,554.121,1082.043,553.012,1081.688L553.012,1081.688z M562.078,1084.182
					c1.11,0.271,2.247,0.528,3.403,0.775l12.409-300.754l-3.424-0.177L562.078,1084.182L562.078,1084.182z M568.501,1085.569
					c1.124,0.224,2.263,0.434,3.415,0.635l12.453-301.693l-3.433-0.159L568.501,1085.569L568.501,1085.569z M576.431,1086.952
					l9.476-302.37l3.435,0.131l-9.491,302.73C578.696,1087.289,577.559,1087.12,576.431,1086.952L576.431,1086.952z
					 M584.96,1088.096c1.133,0.131,2.273,0.257,3.424,0.378l7.74-303.561l-3.431-0.093L584.96,1088.096L584.96,1088.096z
					 M594.426,1089.035l5.902-304.033c1.161,0.028,2.303,0.037,3.431,0.056l-5.9,304.229
					C596.711,1089.213,595.559,1089.129,594.426,1089.035L594.426,1089.035z M605.424,1089.731c1.142,0.056,2.287,0.112,3.433,0.15
					l2.079-304.809c-1.133,0.005-2.277,0.005-3.438,0.005L605.424,1089.731L605.424,1089.731z M614.727,1071.224
					c1.147,0.023,2.289,0.042,3.435,0.051l-0.143-286.301c-1.137,0.023-2.279,0.052-3.431,0.061L614.727,1071.224L614.727,1071.224z
					 M624.067,1090.138c1.145,0,2.286-0.014,3.433-0.033l-1.341-305.373c-1.147,0.047-2.289,0.089-3.426,0.117L624.067,1090.138
					L624.067,1090.138z M634.145,1089.97c1.152-0.042,2.294-0.079,3.436-0.117l-3.539-305.485c-1.156,0.061-2.298,0.121-3.431,0.173
					L634.145,1089.97L634.145,1089.97z M645.148,1089.498c1.142-0.066,2.284-0.14,3.422-0.219l-6.603-305.364l-3.436,0.206
					L645.148,1089.498L645.148,1089.498z M655.747,1088.736l-11.063-304.995l3.433-0.22l11.055,304.911
					C658.031,1088.54,656.894,1088.643,655.747,1088.736L655.747,1088.736z M665.966,1087.737c1.147-0.13,2.286-0.266,3.419-0.402
					l-15.188-304.229l-3.431,0.238L665.966,1087.737L665.966,1087.737z M675.422,1086.522c1.147-0.164,2.287-0.327,3.415-0.505
					l-17.024-303.43l-3.422,0.233L675.422,1086.522L675.422,1086.522z M685.701,1084.869l-18.633-302.631l3.441-0.239l18.607,302.23
					C687.994,1084.448,686.862,1084.659,685.701,1084.869L685.701,1084.869z M696.842,1082.561c1.147-0.271,2.284-0.551,3.391-0.831
					l-21.002-300.305l-3.433,0.224L696.842,1082.561L696.842,1082.561z M710.571,1078.665c1.156-0.397,2.268-0.808,3.34-1.228
					l-27.373-296.475l-3.438,0.21L710.571,1078.665z"/>
			</defs>
			<use xlink:href="#SVGID_7_"  overflow="visible" fill-rule="evenodd" clip-rule="evenodd" fill="#666264"/>
			<clipPath id="SVGID_8_">
				<use xlink:href="#SVGID_7_"  overflow="visible"/>
			</clipPath>
			<g clip-path="url(#SVGID_8_)">
				<path fill-rule="evenodd" clip-rule="evenodd" fill="#3A3337" d="M541.953,770.681l0.537,51.472
					c38.147-15.733,41.856-21.062,82.18-10.786c35.739,9.118,60.98,84.782,72.768,118.788
					c8.314,23.996,12.518,88.052-11.897,107.647c-31.035,24.902-37.433,22.576-77.638,21.02
					c-19.262-0.752-89.231-20.203-95.565-41.48l5.926,59.623l54.905,26.364l143.197,2.504l31.224-54.601l-36.068-300.006
					L541.953,770.681z"/>
			</g>
		</g>
	</g>
	<path fill-rule="evenodd" clip-rule="evenodd" fill="#FFFFFF" d="M581.377,151.157c26.719,0,48.51-14.733,48.51-32.797
		c0-18.068-21.791-32.801-48.51-32.801c-26.71,0-48.501,14.733-48.501,32.801C532.876,136.424,554.668,151.157,581.377,151.157z"/>
	<path fill-rule="evenodd" clip-rule="evenodd" fill="#FFFFFF" d="M689.487,181.646c16.926,0,30.738-9.337,30.738-20.787
		s-13.813-20.787-30.738-20.787c-16.942,0-30.748,9.337-30.748,20.787S672.545,181.646,689.487,181.646z"/>
	<path fill-rule="evenodd" clip-rule="evenodd" fill="#1B1414" d="M706.569,264.335c-23.923,17.559-145.579,10.94-164.003-22.174
		c-16.522,11.365-30.11,31.278-26.591,43.699c2.488,8.815,14.735,15.037,29.174,19.329c34.111,10.141,69.755,14.584,105.641,14.584
		c26.014,0,61.316-0.467,82.575-15.471C740.704,299.121,708.744,269.155,706.569,264.335z"/>
	<path opacity="0.3" fill-rule="evenodd" clip-rule="evenodd" fill="#FFFFFF" d="M371.628,653.304
		c-2.919-6.656-13.191-10.613-5.465-28.448c2.688-6.203,21.786-13.093,3.13-31.493c-24.351-24.001,28.55-30.036,1.565-53.429
		c-9.415-8.161,17.877-21.189-0.813-25.449c-7.322-1.663-8.63,2.532-7.707,5.344c0.748,2.238,3.422,3.76,1.931-0.528
		c-0.371-0.112,6.799,1.986,0.306,6.614c-6.07,4.321-13.976-20.931,6.589-18.404c10.463,1.289,16.548,12.5,8.894,23.263
		c-7.668,10.785,18.538,10.753,5.309,32.558c-12.54,20.679-2.023,17.905,5.038,37.701c6.979,19.535-16.473,23.445,0.505,38.308
		c3.585,3.13-0.316,21.231-18.4,15.583C371.918,654.742,371.829,653.789,371.628,653.304z"/>
	<path opacity="0.3" fill-rule="evenodd" clip-rule="evenodd" fill="#FFFFFF" d="M394.827,638.043
		c-2.032-4.647-9.191-7.404-3.809-19.824c1.873-4.321,15.174-9.123,2.177-21.931c-16.956-16.728,19.89-20.923,1.091-37.22
		c-6.556-5.685,12.449-14.756-0.57-17.718c-5.092-1.163-6.005,1.761-5.358,3.714c0.514,1.565,2.377,2.625,1.34-0.365
		c-0.262-0.075,4.744,1.378,0.21,4.606c-4.223,3.013-9.728-14.574,4.591-12.813c7.283,0.892,11.529,8.707,6.197,16.195
		c-5.337,7.511,12.911,7.488,3.692,22.679c-8.73,14.411-1.408,12.468,3.515,26.262c4.855,13.612-11.475,16.33,0.348,26.677
		c2.502,2.186-0.22,14.794-12.811,10.856C395.023,639.028,394.974,638.37,394.827,638.043z"/>
	<path fill-rule="evenodd" clip-rule="evenodd" fill="#FFFFFF" d="M702.45,647.236l0.923-67.447
		c28.223,8.296,35.786,28.499,39.735,53.219c0.813,5.101,8.88,70.54,13.17,69.059c14.439-4.984,51.504-34.165,51.504-23.412
		c0,64.135,39.233,86.912-67.45,91.466C702.688,771.736,702.45,670.339,702.45,647.236z"/>
	<path fill-rule="evenodd" clip-rule="evenodd" fill="#C6A479" d="M845.294,722.17c12.287,5.241,28.541,21.73,6.937,20.147
		C850.827,742.21,838.846,733.232,845.294,722.17L845.294,722.17z M813.192,688.221c4.797-5.862,49.313-16.83,69.507-18.255
		c7.283-0.505,13.706,0.574,11.669,9.678c-0.885,3.947-4.12,6.259-8.616,7.703c10.527,3.662,8.649,19.544-12.495,15.658
		c-16.12-2.966-20.754,1.247-36.033,4.503c-10.424,2.214-16.611-6.806-15.022-7.506l1.459-0.645
		c-2.478-0.224-4.475-1.065-5.498-2.817C816.282,693.308,811.664,690.089,813.192,688.221L813.192,688.221z M857.082,705.541
		c-16.749,3.111-1.927,13.71,1.495,18.297c8.151,10.888,20.387,6.596,16.872-3.284C872.838,713.221,861.288,704.761,857.082,705.541
		z"/>
	<path fill-rule="evenodd" clip-rule="evenodd" fill="#A9885D" d="M831.082,680.513c-2.018,6.198,1.346,14.116,13.023,10.468
		c5.927-1.859,3.702-10.076,6.026-15.49c6.037-1.392,12.164-2.639,17.807-3.601c-0.357,2.639-1.376,6.273,7.6,7.119
		c5.909,0.561,12.58,1.817,18.772,0.887c-0.97,3.798-4.162,6.036-8.558,7.451c0.908,0.308,1.719,0.724,2.441,1.196
		c-0.722,0.084-1.474,0.126-2.263,0.126c-4.529,0-20.152-1.27-10.676,7.385c4.437,4.036,12.217,1.289,16.606,0.509
		c-0.974,4.601-6.774,8.619-18.603,6.442c-16.12-2.966-20.754,1.247-36.033,4.503c-10.424,2.214-16.611-6.806-15.022-7.506
		l1.459-0.645c-2.478-0.224-4.475-1.065-5.498-2.817c-1.88-3.232-6.498-6.451-4.97-8.319
		C814.931,686.081,821.924,683.283,831.082,680.513L831.082,680.513z M868.181,711.095c-4.097-3.527-8.749-5.988-11.099-5.554
		c-16.749,3.111-1.927,13.71,1.495,18.297c3.648,4.867,8.113,6.698,11.619,6.348c-0.642-1.98-1.336-4.68-1.845-8.343
		C867.676,716.934,867.676,713.487,868.181,711.095L868.181,711.095z M861.596,735.012c-1.1,0.037-2.312,0.098-3.634,0.206
		c-3.996,0.313-7.06,2.153-9.998,3.853c-3.368-3.587-6.799-9.819-2.67-16.9C851.53,724.833,858.784,730.392,861.596,735.012z"/>
	<path fill-rule="evenodd" clip-rule="evenodd" fill="#FFFFFF" d="M835.781,637.095c0.119,6.727,6.558,12.561,17.363,14.233
		c-0.523,37.897-0.306,101.873-2.226,125.463c-2.857,3.741-25.003,5.218-25.098,9.034c-0.404,4.676,53.09,7.805,68.727,2.76
		c2.887-2.91-27.609-6.572-28.812-12.285c-1.917-33.87-0.88-82.759-0.028-124.024c7.871,0.374,16.805-3.447,17.961-8.072
		c0.948-28.153,6.308-83.469,8.254-111.552c-1.495-12.196-55.346-10.907-57.948,0C833.569,557.82,832.675,611.683,835.781,637.095z"
		/>
	<path fill-rule="evenodd" clip-rule="evenodd" fill="#CBC8C7" d="M834.501,621.516c2.546,13.509,8.516,28.475,20.341,27.499
		c8.76-0.724,6.168,6.834,6.168,15.298c0,13.635-1.056,15.406,4.12,17.283c-0.194,11.253-0.36,22.678-0.432,33.866
		c-20.758,14.448,5.79,62.159-9.718,65.354c-1.731,0.355-6.309,0.939-11.907,2.751c-6.621,2.135,9.352,5.297,10.971,5.199
		c0.096-0.014,7.677,1.051,7.604,2.336c-18.138-0.378-36.061-2.569-35.828-5.278c0.096-3.817,22.242-5.293,25.098-9.034
		c1.92-23.59,1.702-87.566,2.226-125.463c-10.805-1.672-17.244-7.506-17.363-14.233
		C835.239,632.671,834.828,627.374,834.501,621.516z"/>
	<path fill-rule="evenodd" clip-rule="evenodd" fill="#E3C6A4" d="M813.423,687.062c3.634,3.298,23.076,16.909,27.03,12.29
		c2.854-3.34,42.582-33.142,39.534-8.356c-1.614,13.163-24.227,11.472-26.369,30.951c-2.31,20.992-30.589,31.46-32.336,28.219
		c-14.6-26.953-8.572-34.422-8.744-61.987C812.533,687.408,812.839,686.544,813.423,687.062z"/>
	<path fill-rule="evenodd" clip-rule="evenodd" fill="#E1D790" d="M885.034,557.245c-3.854-5.082-41.889-6.469-46.2-1.387
		c0,28.947,0,67.139,3.235,85.464c2.922,4.779,30.335,7.236,34.651,2.312C879.947,639.015,882.722,586.347,885.034,557.245z"/>
	<path fill-rule="evenodd" clip-rule="evenodd" fill="#F6F0D7" d="M863.124,557.245c-0.581-5.082-6.35-6.469-7.007-1.387
		c0,28.947-3.074,71.371-2.593,89.7c0.066,0.734,7.878,1.271,8.532,0.771C862.547,641.709,862.771,586.347,863.124,557.245z"/>
	<path fill-rule="evenodd" clip-rule="evenodd" fill="#AFAFB0" d="M863.084,537.005c13.103,0,23.791-2.326,23.791-5.176
		c0-2.849-10.688-5.176-23.791-5.176c-13.096,0-23.788,2.327-23.788,5.176C839.296,534.679,849.988,537.005,863.084,537.005z"/>
	<path fill-rule="evenodd" clip-rule="evenodd" fill="#E3E0DF" d="M863.084,537.005c10.838,0,19.67-1.261,19.67-2.807
		c0-1.537-8.833-2.793-19.67-2.793c-10.835,0-19.677,1.257-19.677,2.793C843.407,535.744,852.25,537.005,863.084,537.005z"/>
	<path fill-rule="evenodd" clip-rule="evenodd" fill="#E3C6A4" d="M526.673,407.605c-3.044-21.301,45.301-29.284,53.069-6.199
		C571.988,399.346,541.724,398.047,526.673,407.605z"/>
	<path fill-rule="evenodd" clip-rule="evenodd" fill="#B18B5B" d="M532.178,398.893c9.261-4.19,21.852-6.909,35.723-4.695
		c-2.635-3.872-10.197-7.819-16.987-7.278C537.387,388.443,534.437,394.091,532.178,398.893z"/>
	<path fill-rule="evenodd" clip-rule="evenodd" fill="#E3C6A4" d="M640.017,399.411c-0.962-21.501,47.942-24.753,53.419-1.023
		C685.92,395.59,655.932,391.363,640.017,399.411z"/>
	<path fill-rule="evenodd" clip-rule="evenodd" fill="#B18B5B" d="M685.482,395.128c-8.705-3.62-20.093-5.61-32.883-3.163
		c2.336-3.667,10.064-6.483,15.116-5.979C680.297,387,683.251,390.742,685.482,395.128z"/>
	<path fill-rule="evenodd" clip-rule="evenodd" fill="#6A412F" d="M689.644,371.935c3.972,4.624,3.289,10.529,1.812,12.617
		c-25.444-7.147-48.547-0.612-59.532,0.682c-1.156-0.028-3.025-0.822-1-5.423C634.741,370.833,678.946,368.932,689.644,371.935z"/>
	<path fill-rule="evenodd" clip-rule="evenodd" fill="#E3E0DF" d="M702.606,663.066c9.209,30.745,16.214,81.241,43.792,81.241
		c20.189,0,22.088-31.675,23.162-49.006c6.874-4.049,14.586-8.992,21.273-12.822l6.575,79.905
		c-11.256,4.101-29.169,6.544-57.075,7.735C708.557,771.484,703.431,699.455,702.606,663.066z"/>
	<path fill-rule="evenodd" clip-rule="evenodd" fill="#1B1414" d="M808.238,672.876c-11.398-9.945-27.721-4.54-27.721,16.62
		c0,20.123-4.101,67.83,4.503,82.133c3.492,5.806,42.157,6.493,42.157-7.852C827.177,745.433,820.563,683.633,808.238,672.876z"/>
	<path fill-rule="evenodd" clip-rule="evenodd" fill="#F6F0D7" d="M872.747,560.459c-0.348-4.905-3.814-6.241-4.205-1.336
		c0,27.92-1.852,69.026-1.557,86.697c0.035,0.659,4.615,0.949,5.005-0.336C872.284,641.032,872.536,588.524,872.747,560.459z"/>
	<path fill-rule="evenodd" clip-rule="evenodd" fill="#BAB267" d="M861.816,560.702c12.657,0,22.98-1.864,22.98-4.153
		c0-2.294-10.323-4.162-22.98-4.162c-12.659,0-22.982,1.868-22.982,4.162C838.834,558.839,849.157,560.702,861.816,560.702z"/>
</g>
</svg>
